<?xml version="1.0" encoding="utf-8"?>
<!-- Generator: Adobe Illustrator 16.0.0, SVG Export Plug-In . SVG Version: 6.00 Build 0)  -->
<!DOCTYPE svg PUBLIC "-//W3C//DTD SVG 1.1//EN" "http://www.w3.org/Graphics/SVG/1.1/DTD/svg11.dtd">
<svg version="1.1" id="Layer_1" xmlns="http://www.w3.org/2000/svg" xmlns:xlink="http://www.w3.org/1999/xlink" x="0px" y="0px"
	 width="340px" height="221px" viewBox="0 0 340 221" enable-background="new 0 0 340 221" xml:space="preserve">
<path fill-rule="evenodd" clip-rule="evenodd" fill="#49C5F2" d="M99,107.335c0,0,0.682-11.955,11-12s12.922,7.29,13,12
	s-4.552,10.715-12,11S99.188,112.771,99,107.335z"/>
<path fill-rule="evenodd" clip-rule="evenodd" d="M63,103.841c0,0,44.331-27.798,96-1C110.919,89.13,79.549,100.177,63,103.841z"/>
<path fill-rule="evenodd" clip-rule="evenodd" d="M63,106.841c0,0,42.723,18.135,97,0C145.938,115.005,109.322,132.171,63,106.841z"
	/>
<path fill-rule="evenodd" clip-rule="evenodd" d="M53,94.841c0,0,19.782-27.229,64-17C95.426,77.041,68.354,83.545,53,94.841z"/>
<path fill-rule="evenodd" clip-rule="evenodd" d="M107,132.841c0,0,31.669,2.712,63-17C159.733,125.609,145.796,141.001,107,132.841
	z"/>
<text transform="matrix(0.9345 0 0 1 165.3477 113.4907)" font-family="'MyriadPro-Regular'" font-size="26.9612">Kev Company</text>
<path fill-rule="evenodd" clip-rule="evenodd" fill="#FFFFFF" d="M104.857,107.228c0,0,0.349-6.089,5.631-6.112
	s6.614,3.713,6.654,6.112c0.04,2.399-2.331,5.458-6.143,5.603C107.187,112.976,104.954,109.997,104.857,107.228z"/>
</svg>
